<?xml version="1.0" encoding="UTF-8"?>
<svg xmlns="http://www.w3.org/2000/svg" xmlns:xlink="http://www.w3.org/1999/xlink" viewBox="0 0 612.19 656.29">
  <defs>
    <style>
      .cls-1 {
        fill: #ffe07f;
      }

      .cls-2 {
        fill: #74c7a8;
      }

      .cls-3 {
        fill: #f2f6dc;
      }

      .cls-4 {
        fill: none;
        stroke: #871518;
        stroke-miterlimit: 10;
        stroke-width: 4px;
      }

      .cls-5 {
        fill: #a4282c;
      }

      .cls-6 {
        fill: #150f28;
      }

      .cls-7 {
        fill: #01253e;
      }

      .cls-8 {
        fill: #e0e4df;
      }

      .cls-9 {
        fill: #f9a26b;
      }

      .cls-10 {
        fill: #f79757;
      }

      .cls-11 {
        fill: #9bced6;
      }

      .cls-12 {
        fill: #bcbec0;
      }
    </style>
    <symbol id="New_Symbol_1" data-name="New Symbol 1" viewBox="0 0 4.55 4.55">
      <circle class="cls-12" cx="2.28" cy="2.28" r="2.28"/>
    </symbol>
    <symbol id="New_Symbol_2" data-name="New Symbol 2" viewBox="0 0 2.43 2.43">
      <use width="4.55" height="4.55" transform="scale(.53)" xlink:href="#New_Symbol_1"/>
    </symbol>
  </defs>
  <g id="inner_score">
    <g>
      <path class="cls-8" d="M543.54,472.71c-6.4,7.4-25.56,2.44-32.54,8.99-7.12,6.69-3.37,26.11-11.02,31.91s-25.47-2.95-33.7,2.03c-8.32,5.03-8.73,24.81-17.45,28.9-8.79,4.12-24.26-8.22-33.38-5.07-9.17,3.17-13.69,22.44-23.09,24.63-9.44,2.2-22-13.09-31.6-11.89s-18.02,19.11-27.69,19.31c-9.67.2-18.8-17.36-28.45-18.17s-21.56,14.98-31.09,13.16-14.76-20.87-24.06-23.68c-9.22-2.79-24.19,10.16-33.15,6.38-8.86-3.74-10.04-23.48-18.57-28.19-8.4-4.64-25.74,4.9-33.75-.69s-4.9-25.04-12.3-31.44-26.33-.66-32.89-7.63c-6.69-7.12.24-25.66-5.56-33.3-5.89-7.76-25.6-6.08-30.58-14.31s5.62-25,1.53-33.73c-4.12-8.79-23.75-11.27-26.91-20.39s10.72-23.26,8.53-32.66-20.88-15.94-22.08-25.53,15.31-20.51,15.11-30.19-17.14-19.9-16.33-29.55,19.22-16.88,21.03-26.41-12.64-23-9.83-32.3,22.3-12.47,26.08-21.44-7.57-25.11-2.86-33.64,24.4-7.5,29.99-15.51-2.2-26.09,4.2-33.5,25.56-2.44,32.54-8.99c7.12-6.69,3.37-26.11,11.02-31.91s25.47,2.95,33.7-2.03,8.73-24.81,17.45-28.9,24.26,8.22,33.38,5.07,13.69-22.44,23.09-24.63c9.44-2.2,22,13.09,31.6,11.89S311.94.2,321.61,0s18.8,17.36,28.45,18.17,21.56-14.98,31.09-13.16,14.76,20.87,24.06,23.68,24.19-10.16,33.15-6.38,10.04,23.48,18.57,28.19,25.74-4.9,33.75.69,4.9,25.04,12.3,31.44c7.4,6.4,26.33.66,32.89,7.63,6.69,7.12-.24,25.66,5.56,33.3,5.89,7.76,25.6,6.08,30.58,14.31,5.03,8.32-5.62,25-1.53,33.73s23.75,11.27,26.91,20.39-10.72,23.26-8.53,32.66c2.2,9.44,20.88,15.94,22.08,25.53,1.2,9.6-15.31,20.51-15.11,30.19s17.14,19.9,16.33,29.55-19.22,16.88-21.03,26.41,12.64,23,9.83,32.3-22.3,12.47-26.08,21.44,7.57,25.11,2.86,33.64-24.4,7.5-29.99,15.51c-5.48,7.85,2.2,26.09-4.2,33.5Z"/>
      <path class="cls-3" d="M334.63,60.07c-4.93-.07-9.85.01-14.77.26l11.58,225.51,3.2-225.77Z"/>
      <path class="cls-3" d="M378.63,65c-4.83-1.03-9.68-1.89-14.55-2.6l-32.64,223.44,47.19-220.84Z"/>
      <path class="cls-3" d="M319.86,60.33c-4.92.25-9.83.68-14.72,1.25l26.3,224.26-11.58-225.51Z"/>
      <path class="cls-3" d="M364.08,62.4c-4.88-.71-9.78-1.25-14.68-1.64l-17.96,225.08,32.64-223.44Z"/>
      <path class="cls-1" d="M392.97,68.56c-4.75-1.34-9.53-2.54-14.34-3.56l-47.19,220.84,61.53-217.28Z"/>
      <path class="cls-10" d="M459.52,99.91c-4.08-2.82-8.22-5.48-12.43-7.99l-115.65,193.92,128.08-185.93Z"/>
      <path class="cls-10" d="M447.09,91.92c-4.25-2.54-8.56-4.93-12.92-7.16l-102.73,201.08,115.65-193.92Z"/>
      <path class="cls-10" d="M434.17,84.75c-4.4-2.25-8.86-4.37-13.36-6.31l-89.37,207.4,102.73-201.08Z"/>
      <path class="cls-1" d="M420.81,78.44c-4.54-1.96-9.13-3.75-13.76-5.39l-75.61,212.79,89.37-207.4Z"/>
      <path class="cls-1" d="M407.05,73.05c-4.66-1.65-9.35-3.15-14.08-4.49l-61.53,217.28,75.61-212.79Z"/>
      <path class="cls-3" d="M163.83,134.6c-3.32,3.68-6.49,7.46-9.53,11.29l177.13,139.94-167.6-151.24Z"/>
      <path class="cls-3" d="M184.99,114c-3.72,3.18-7.35,6.51-10.9,9.97l157.35,161.87L184.99,114Z"/>
      <path class="cls-3" d="M196.54,104.78c-3.93,2.93-7.78,6-11.54,9.22l146.44,171.83L196.54,104.78Z"/>
      <path class="cls-3" d="M208.66,96.33c-4.11,2.67-8.16,5.49-12.12,8.45l134.9,181.06-122.78-189.51Z"/>
      <path class="cls-3" d="M174.09,123.97c-3.5,3.41-6.93,6.95-10.26,10.63l167.6,151.24L174.09,123.97Z"/>
      <path class="cls-11" d="M471.38,108.71c-3.89-3.08-7.84-6.02-11.87-8.8l-128.08,185.93,139.94-177.13Z"/>
      <path class="cls-3" d="M221.3,88.68c-4.28,2.4-8.5,4.95-12.64,7.65l122.78,189.51-110.14-197.15Z"/>
      <path class="cls-3" d="M247.98,76.01c-4.57,1.81-9.09,3.78-13.55,5.9l97,203.93-83.46-209.83Z"/>
      <path class="cls-3" d="M234.44,81.91c-4.44,2.11-8.82,4.36-13.13,6.77l110.14,197.15-97-203.93Z"/>
      <path class="cls-3" d="M276.09,66.92c-4.77,1.2-9.51,2.56-14.2,4.08l69.55,214.84-55.35-218.92Z"/>
      <path class="cls-3" d="M290.53,63.78c-4.84.89-9.66,1.93-14.44,3.14l55.35,218.92-40.91-222.06Z"/>
      <path class="cls-3" d="M305.14,61.58c-4.89.57-9.76,1.31-14.61,2.2l40.91,222.06-26.3-224.26Z"/>
      <path class="cls-3" d="M261.88,70.99c-4.68,1.51-9.31,3.19-13.9,5.01l83.46,209.83-69.55-214.84Z"/>
      <path class="cls-3" d="M349.39,60.76c-4.91-.39-9.84-.62-14.76-.69l-3.2,225.77,17.96-225.08Z"/>
      <path class="cls-3" d="M544.23,361.45c1.65-4.66,3.15-9.35,4.49-14.08l-217.28-61.53,212.79,75.61Z"/>
      <path class="cls-11" d="M482.67,118.23c-3.68-3.32-7.46-6.49-11.29-9.53l-139.94,177.13,151.24-167.6Z"/>
      <path class="cls-3" d="M552.28,333.03c1.03-4.83,1.89-9.68,2.6-14.55l-223.44-32.64,220.84,47.19Z"/>
      <path class="cls-3" d="M556.52,303.79c.39-4.91.62-9.84.69-14.76l-225.77-3.2,225.08,17.96Z"/>
      <path class="cls-3" d="M554.88,318.48c.71-4.88,1.25-9.78,1.64-14.68l-225.08-17.96,223.44,32.64Z"/>
      <path class="cls-3" d="M525.36,401.49c2.54-4.25,4.93-8.56,7.16-12.92l-201.08-102.73,193.92,115.65Z"/>
      <path class="cls-3" d="M517.37,413.92c2.82-4.08,5.48-8.22,7.99-12.43l-193.92-115.65,185.93,128.08Z"/>
      <path class="cls-3" d="M538.84,375.21c1.96-4.54,3.75-9.13,5.39-13.76l-212.79-75.61,207.4,89.37Z"/>
      <path class="cls-3" d="M508.57,425.78c3.08-3.89,6.02-7.84,8.8-11.87l-185.93-128.08,177.13,139.94Z"/>
      <path class="cls-3" d="M532.52,388.57c2.25-4.4,4.37-8.86,6.31-13.36l-207.4-89.37,201.08,102.73Z"/>
      <path class="cls-3" d="M557.21,289.03c.07-4.93-.01-9.85-.26-14.77l-225.51,11.58,225.77,3.2Z"/>
      <path class="cls-3" d="M548.72,347.37c1.34-4.75,2.54-9.53,3.56-14.34l-220.84-47.19,217.28,61.53Z"/>
      <path class="cls-9" d="M520.95,163.06c-2.67-4.11-5.49-8.16-8.45-12.12l-181.06,134.9,189.51-122.78Z"/>
      <path class="cls-9" d="M512.5,150.94c-2.93-3.93-6-7.78-9.22-11.54l-171.83,146.44,181.06-134.9Z"/>
      <path class="cls-3" d="M556.95,274.26c-.25-4.92-.68-9.83-1.25-14.72l-224.26,26.3,225.51-11.58Z"/>
      <path class="cls-11" d="M493.31,128.49c-3.41-3.5-6.95-6.93-10.63-10.26l-151.24,167.6,161.87-157.35Z"/>
      <path class="cls-9" d="M503.27,139.39c-3.18-3.72-6.51-7.35-9.97-10.9l-161.87,157.35,171.83-146.44Z"/>
      <path class="cls-3" d="M553.5,244.93c-.89-4.84-1.93-9.66-3.14-14.44l-218.92,55.35,222.06-40.91Z"/>
      <path class="cls-3" d="M555.7,259.54c-.57-4.89-1.31-9.76-2.2-14.61l-222.06,40.91,224.26-26.3Z"/>
      <path class="cls-3" d="M550.36,230.49c-1.2-4.77-2.56-9.51-4.08-14.2l-214.84,69.55,218.92-55.35Z"/>
      <g>
        <path class="cls-1" d="M528.59,175.7c-2.4-4.28-4.95-8.5-7.65-12.64l-189.51,122.78,197.15-110.14Z"/>
        <path class="cls-1" d="M535.37,188.84c-2.11-4.44-4.36-8.82-6.77-13.13l-197.15,110.14,203.93-97Z"/>
        <path class="cls-1" d="M541.27,202.38c-1.81-4.57-3.78-9.09-5.9-13.55l-203.93,97,209.83-83.46Z"/>
      </g>
      <path class="cls-3" d="M546.28,216.28c-1.51-4.68-3.19-9.31-5.01-13.9l-209.83,83.46,214.84-69.55Z"/>
      <path class="cls-3" d="M269.91,503.12c4.75,1.34,9.53,2.54,14.34,3.56l47.19-220.84-61.53,217.28Z"/>
      <path class="cls-3" d="M298.8,509.28c4.88.71,9.78,1.25,14.68,1.64l17.96-225.08-32.64,223.44Z"/>
      <path class="cls-3" d="M284.25,506.68c4.83,1.03,9.68,1.89,14.55,2.6l32.64-223.44-47.19,220.84Z"/>
      <path class="cls-3" d="M313.48,510.92c4.91.39,9.84.62,14.76.69l3.2-225.77-17.96,225.08Z"/>
      <path class="cls-3" d="M357.74,510.1c4.89-.57,9.76-1.31,14.61-2.2l-40.91-222.06,26.3,224.26Z"/>
      <path class="cls-3" d="M343.02,511.35c4.92-.25,9.83-.68,14.72-1.25l-26.3-224.26,11.58,225.51Z"/>
      <path class="cls-3" d="M328.24,511.61c4.93.07,9.85-.01,14.77-.26l-11.58-225.51-3.2,225.77Z"/>
      <path class="cls-3" d="M203.36,471.77c4.08,2.82,8.22,5.48,12.43,7.99l115.65-193.92-128.08,185.93Z"/>
      <path class="cls-3" d="M215.79,479.76c4.25,2.54,8.56,4.93,12.92,7.16l102.73-201.08-115.65,193.92Z"/>
      <path class="cls-3" d="M228.71,486.92c4.4,2.25,8.86,4.37,13.36,6.31l89.37-207.4-102.73,201.08Z"/>
      <path class="cls-3" d="M255.83,498.63c4.65,1.65,9.35,3.15,14.08,4.49l61.53-217.28-75.61,212.79Z"/>
      <path class="cls-3" d="M242.07,493.24c4.54,1.96,9.13,3.75,13.76,5.39l75.61-212.79-89.37,207.4Z"/>
      <path class="cls-3" d="M372.35,507.9c4.84-.89,9.66-1.93,14.44-3.14l-55.35-218.92,40.91,222.06Z"/>
      <path class="cls-3" d="M454.22,475.35c4.11-2.67,8.16-5.49,12.12-8.45l-134.9-181.06,122.78,189.51Z"/>
      <path class="cls-3" d="M477.88,457.67c3.72-3.18,7.35-6.51,10.9-9.97l-157.35-161.87,146.44,171.83Z"/>
      <path class="cls-3" d="M466.34,466.9c3.93-2.93,7.78-6,11.54-9.22l-146.44-171.83,134.9,181.06Z"/>
      <path class="cls-3" d="M488.79,447.71c3.5-3.41,6.93-6.95,10.26-10.63l-167.6-151.24,157.35,161.87Z"/>
      <path class="cls-3" d="M331.44,285.84l167.6,151.24c3.32-3.68,6.49-7.46,9.53-11.29l-177.13-139.94Z"/>
      <path class="cls-3" d="M414.89,495.67c4.57-1.81,9.09-3.78,13.55-5.9l-97-203.93,83.46,209.83Z"/>
      <path class="cls-3" d="M441.57,482.99c4.28-2.4,8.5-4.95,12.64-7.65l-122.78-189.51,110.14,197.15Z"/>
      <path class="cls-3" d="M400.99,500.68c4.68-1.51,9.31-3.19,13.9-5.01l-83.46-209.83,69.55,214.84Z"/>
      <path class="cls-3" d="M386.79,504.76c4.77-1.2,9.51-2.56,14.2-4.08l-69.55-214.84,55.35,218.92Z"/>
      <path class="cls-3" d="M191.49,462.97c3.89,3.08,7.84,6.02,11.87,8.8l128.08-185.93-139.94,177.13Z"/>
      <path class="cls-3" d="M428.44,489.77c4.44-2.11,8.82-4.36,13.13-6.77l-110.14-197.15,97,203.93Z"/>
      <path class="cls-3" d="M105.67,282.64c-.07,4.93.01,9.85.26,14.77l225.51-11.58-225.77-3.2Z"/>
      <path class="cls-3" d="M114.16,224.31c-1.34,4.75-2.54,9.53-3.56,14.34l220.84,47.19-217.28-61.53Z"/>
      <path class="cls-3" d="M110.6,238.65c-1.03,4.83-1.89,9.68-2.6,14.55l223.44,32.64-220.84-47.19Z"/>
      <path class="cls-3" d="M108,253.2c-.71,4.88-1.25,9.78-1.64,14.68l225.08,17.96-223.44-32.64Z"/>
      <path class="cls-3" d="M105.93,297.42c.25,4.92.68,9.83,1.25,14.72l224.26-26.3-225.51,11.58Z"/>
      <path class="cls-3" d="M154.31,145.89c-3.08,3.89-6.02,7.84-8.8,11.87l185.93,128.08-177.13-139.94Z"/>
      <path class="cls-3" d="M106.36,267.88c-.39,4.91-.62,9.84-.69,14.76l225.77,3.2-225.08-17.96Z"/>
      <path class="cls-3" d="M137.52,170.19c-2.54,4.25-4.93,8.56-7.16,12.92l201.08,102.73-193.92-115.65Z"/>
      <path class="cls-3" d="M145.51,157.76c-2.82,4.08-5.48,8.22-7.99,12.43l193.92,115.65-185.93-128.08Z"/>
      <path class="cls-3" d="M118.65,210.23c-1.65,4.66-3.15,9.35-4.49,14.08l217.28,61.53-212.79-75.61Z"/>
      <path class="cls-3" d="M130.35,183.11c-2.25,4.4-4.37,8.86-6.31,13.36l207.4,89.37-201.08-102.73Z"/>
      <path class="cls-3" d="M124.04,196.47c-1.96,4.54-3.75,9.13-5.39,13.76l212.79,75.61-207.4-89.37Z"/>
      <path class="cls-3" d="M169.57,443.19c3.41,3.5,6.95,6.93,10.63,10.26l151.24-167.6-161.87,157.35Z"/>
      <path class="cls-3" d="M150.38,420.74c2.93,3.93,6,7.78,9.22,11.54l171.83-146.44-181.06,134.9Z"/>
      <path class="cls-3" d="M141.93,408.62c2.67,4.11,5.49,8.16,8.45,12.12l181.06-134.9-189.51,122.78Z"/>
      <path class="cls-3" d="M180.2,453.44c3.68,3.32,7.46,6.49,11.29,9.53l139.94-177.13-151.24,167.6Z"/>
      <path class="cls-3" d="M134.28,395.97c2.4,4.28,4.95,8.5,7.65,12.64l189.51-122.78-197.15,110.14Z"/>
      <path class="cls-3" d="M159.6,432.28c3.18,3.72,6.51,7.35,9.97,10.9l161.87-157.35-171.83,146.44Z"/>
      <path class="cls-3" d="M116.59,355.39c1.51,4.68,3.19,9.31,5.01,13.9l209.83-83.46-214.84,69.55Z"/>
      <path class="cls-3" d="M112.52,341.19c1.2,4.77,2.56,9.51,4.08,14.2l214.84-69.55-218.92,55.35Z"/>
      <path class="cls-3" d="M109.38,326.75c.89,4.84,1.93,9.66,3.14,14.44l218.92-55.35-222.06,40.91Z"/>
      <path class="cls-3" d="M127.51,382.84c2.11,4.44,4.36,8.82,6.77,13.13l197.15-110.14-203.93,97Z"/>
      <path class="cls-3" d="M121.61,369.29c1.81,4.57,3.78,9.09,5.9,13.55l203.93-97-209.83,83.46Z"/>
      <path class="cls-3" d="M107.18,312.14c.57,4.89,1.31,9.76,2.2,14.61l222.06-40.91-224.26,26.3Z"/>
    </g>
  </g>
  <g id="inner_cover">
    <path class="cls-2" d="M556.24,262.91c-.98,160.59-115.14,246.76-228.09,246.74s-228.76-83.02-229.7-243.52c76.29,16.85,154.48,16.91,229.72,17.02s151.6-2.97,228.07-20.23Z"/>
  </g>
  <g id="outer">
    <g>
      <path class="cls-7" d="M328.18,24.64c-142.77,0-258.5,115.73-258.5,258.5s115.73,258.5,258.5,258.5,258.5-115.73,258.5-258.5S470.94,24.64,328.18,24.64ZM539.5,293.9h0s-.05,0-.07,0c-5.42,0-9.99-2.9-11.54-8.1l-3.2-10.77c-1.67-3.28-5.14-5.24-8.81-4.98l-187.7,13.09-187.7-13.09c-3.67-.26-7.14,1.7-8.81,4.98l-3.2,10.77c-1.55,5.2-6.12,8.09-11.54,8.1-.02,0-.05,0-.07,0h0c-5.6,0-10.09-4.66-9.85-10.26,5.29-118.69,101.72-222.98,221.17-222.98s215.88,104.29,221.17,222.98c.25,5.59-4.25,10.26-9.85,10.26Z"/>
      <path class="cls-7" d="M430.06,476.17c-1.49-3.88-5.21-6.44-9.37-6.44h-192.27c-4.15,0-7.88,2.56-9.37,6.44l-63.79,166.51c-2.52,6.57,2.33,13.62,9.37,13.62h319.85c7.03,0,11.88-7.05,9.37-13.62l-63.79-166.51Z"/>
      <g>
        <circle class="cls-7" cx="147.47" cy="281.49" r="1.21"/>
        <circle class="cls-7" cx="153.9" cy="282.24" r="1.21"/>
        <circle class="cls-7" cx="195.39" cy="300.79" r="1.21"/>
        <circle class="cls-7" cx="177.18" cy="328.48" r="1.21"/>
        <circle class="cls-7" cx="174.32" cy="313.67" r="1.21"/>
        <circle class="cls-7" cx="227.7" cy="331.15" r="1.21"/>
        <circle class="cls-7" cx="197.68" cy="353.4" r="1.21"/>
        <circle class="cls-7" cx="189.02" cy="313.95" r="1.21"/>
        <circle class="cls-7" cx="137.61" cy="350.71" r="1.21"/>
        <circle class="cls-7" cx="125.38" cy="323.85" r="1.21"/>
        <circle class="cls-7" cx="113.38" cy="322.35" r="1.21"/>
        <circle class="cls-7" cx="106.75" cy="327.24" r="1.21"/>
        <circle class="cls-7" cx="101.55" cy="333.29" r="1.21"/>
        <circle class="cls-7" cx="131.33" cy="371.63" r="1.21"/>
        <circle class="cls-7" cx="184.24" cy="376.44" r="1.21"/>
        <circle class="cls-7" cx="170.27" cy="397.81" r="1.21"/>
        <circle class="cls-7" cx="204.6" cy="372.17" r="1.21"/>
        <circle class="cls-7" cx="167.74" cy="411.68" r="1.21"/>
        <circle class="cls-7" cx="188.63" cy="360.18" r="1.21"/>
        <circle class="cls-7" cx="214.81" cy="450.87" r="1.21"/>
        <circle class="cls-7" cx="256.24" cy="404.04" r="1.21"/>
        <circle class="cls-7" cx="263.88" cy="467.82" r="1.21"/>
        <circle class="cls-7" cx="215.98" cy="419.33" r="1.21"/>
        <circle class="cls-7" cx="226.53" cy="401.09" r="1.21"/>
        <circle class="cls-7" cx="201.6" cy="445.74" r="1.21"/>
        <circle class="cls-7" cx="202.1" cy="453.19" r="1.21"/>
        <circle class="cls-7" cx="167.24" cy="443.28" r="1.21"/>
        <circle class="cls-7" cx="133.79" cy="398.05" r="1.21"/>
        <circle class="cls-7" cx="141.17" cy="423.46" r="1.21"/>
        <circle class="cls-7" cx="108.42" cy="390.32" r="1.21"/>
        <circle class="cls-7" cx="108.32" cy="362.49" r="1.21"/>
        <circle class="cls-7" cx="143.19" cy="440.23" r="1.21"/>
        <circle class="cls-7" cx="157.72" cy="447.35" r="1.21"/>
        <circle class="cls-7" cx="225.08" cy="456.18" r="1.21"/>
        <circle class="cls-7" cx="301.11" cy="508.91" r="1.21"/>
        <circle class="cls-7" cx="257.83" cy="536.86" r="1.21"/>
        <circle class="cls-7" cx="282.71" cy="475.53" r="1.21"/>
        <circle class="cls-7" cx="278.53" cy="541.05" r="1.21"/>
        <circle class="cls-7" cx="240.2" cy="514.2" r="1.21"/>
        <circle class="cls-7" cx="238" cy="487.04" r="1.21"/>
        <circle class="cls-7" cx="213.11" cy="513.39" r="1.21"/>
        <circle class="cls-7" cx="232.29" cy="444.83" r="1.21"/>
        <circle class="cls-7" cx="199.94" cy="480.79" r="1.21"/>
        <circle class="cls-7" cx="182.88" cy="451.67" r="1.21"/>
        <circle class="cls-7" cx="191.77" cy="458.14" r="1.21"/>
        <circle class="cls-7" cx="179.19" cy="469.05" r="1.21"/>
        <circle class="cls-7" cx="221.46" cy="329.92" r="1.21"/>
        <circle class="cls-7" cx="236.55" cy="323.86" r="1.21"/>
        <circle class="cls-7" cx="251.01" cy="299.97" r="1.21"/>
        <circle class="cls-7" cx="261.74" cy="343.28" r="1.21"/>
        <circle class="cls-7" cx="249.3" cy="309.27" r="1.21"/>
        <circle class="cls-7" cx="271.3" cy="298.29" r="1.21"/>
        <circle class="cls-7" cx="284.18" cy="319.64" r="1.21"/>
        <circle class="cls-7" cx="279.89" cy="297.56" r="1.21"/>
        <circle class="cls-7" cx="224.75" cy="292.4" r="1.21"/>
        <circle class="cls-7" cx="184.81" cy="341.91" r="1.21"/>
        <circle class="cls-7" cx="288.74" cy="366.24" r="1.21"/>
        <circle class="cls-7" cx="250.6" cy="377.72" r="1.21"/>
        <circle class="cls-7" cx="340.93" cy="376.84" r="1.21"/>
        <circle class="cls-7" cx="309.76" cy="404.48" r="1.21"/>
        <circle class="cls-7" cx="434.41" cy="367.54" r="1.21"/>
        <circle class="cls-7" cx="420.25" cy="394.77" r="1.21"/>
        <circle class="cls-7" cx="393.36" cy="333.35" r="1.21"/>
        <circle class="cls-7" cx="421.96" cy="387.46" r="1.21"/>
        <circle class="cls-7" cx="384.15" cy="343.05" r="1.21"/>
        <circle class="cls-7" cx="428.36" cy="318.47" r="1.21"/>
        <circle class="cls-7" cx="370.08" cy="363.14" r="1.21"/>
        <circle class="cls-7" cx="403.14" cy="294.47" r="1.21"/>
        <circle class="cls-7" cx="367.84" cy="380.52" r="1.21"/>
        <circle class="cls-7" cx="297.67" cy="377.73" r="1.21"/>
        <circle class="cls-7" cx="374.16" cy="427.74" r="1.21"/>
        <circle class="cls-7" cx="440.51" cy="387.17" r="1.21"/>
        <circle class="cls-7" cx="383.5" cy="457.06" r="1.21"/>
        <circle class="cls-7" cx="354.52" cy="367.63" r="1.21"/>
        <circle class="cls-7" cx="340.75" cy="416.81" r="1.21"/>
        <circle class="cls-7" cx="304.12" cy="442.36" r="1.21"/>
        <circle class="cls-7" cx="296.51" cy="431.36" r="1.21"/>
        <circle class="cls-7" cx="234.43" cy="376.07" r="1.21"/>
        <circle class="cls-7" cx="321.48" cy="422.5" r="1.21"/>
        <circle class="cls-7" cx="303.15" cy="467.68" r="1.21"/>
        <circle class="cls-7" cx="314.54" cy="452.44" r="1.21"/>
        <circle class="cls-7" cx="354.31" cy="554.12" r="1.21"/>
        <circle class="cls-7" cx="327.63" cy="576.06" r="1.21"/>
        <circle class="cls-7" cx="250.22" cy="584.7" r="1.21"/>
        <circle class="cls-7" cx="278.07" cy="531.52" r="1.21"/>
        <circle class="cls-7" cx="236.75" cy="604.91" r="1.21"/>
        <circle class="cls-7" cx="249.09" cy="535.11" r="1.21"/>
        <circle class="cls-7" cx="265.79" cy="545.63" r="1.21"/>
        <circle class="cls-7" cx="218.61" cy="557.74" r="1.21"/>
        <circle class="cls-7" cx="225.49" cy="542.73" r="1.21"/>
        <circle class="cls-7" cx="181.4" cy="607.73" r="1.21"/>
        <circle class="cls-7" cx="173.66" cy="631.29" r="1.21"/>
        <circle class="cls-7" cx="211.95" cy="569.31" r="1.21"/>
        <circle class="cls-7" cx="205.13" cy="591.39" r="1.21"/>
        <circle class="cls-7" cx="183.8" cy="574.43" r="1.21"/>
        <circle class="cls-7" cx="197.03" cy="575.9" r="1.21"/>
        <circle class="cls-7" cx="195.76" cy="605.58" r="1.21"/>
        <circle class="cls-7" cx="217.11" cy="631.94" r="1.21"/>
        <circle class="cls-7" cx="266.39" cy="638.67" r="1.21"/>
        <circle class="cls-7" cx="241.65" cy="646.91" r="1.21"/>
        <circle class="cls-7" cx="230.96" cy="622.6" r="1.21"/>
        <circle class="cls-7" cx="213.95" cy="652.18" r="1.21"/>
        <circle class="cls-7" cx="202.35" cy="652.24" r="1.21"/>
        <circle class="cls-7" cx="279.31" cy="619.39" r="1.21"/>
        <circle class="cls-7" cx="321.09" cy="588.26" r="1.21"/>
        <circle class="cls-7" cx="362.75" cy="632.84" r="1.21"/>
        <circle class="cls-7" cx="323.1" cy="623.08" r="1.21"/>
        <circle class="cls-7" cx="428.44" cy="615.17" r="1.21"/>
        <circle class="cls-7" cx="348.65" cy="632.77" r="1.21"/>
        <circle class="cls-7" cx="366.1" cy="604.3" r="1.21"/>
        <circle class="cls-7" cx="452.37" cy="626.09" r="1.21"/>
        <circle class="cls-7" cx="472.97" cy="646.09" r="1.21"/>
        <circle class="cls-7" cx="471.44" cy="638.05" r="1.21"/>
        <circle class="cls-7" cx="457.67" cy="636.68" r="1.21"/>
        <circle class="cls-7" cx="419.55" cy="647.86" r="1.21"/>
        <circle class="cls-7" cx="371.68" cy="638.92" r="1.21"/>
        <circle class="cls-7" cx="335.14" cy="640.63" r="1.21"/>
        <circle class="cls-7" cx="263.8" cy="601.57" r="1.21"/>
        <circle class="cls-7" cx="308" cy="588" r="1.21"/>
        <circle class="cls-7" cx="304.44" cy="560.15" r="1.21"/>
        <circle class="cls-7" cx="345.76" cy="568" r="1.21"/>
        <circle class="cls-7" cx="306.44" cy="566.3" r="1.21"/>
        <circle class="cls-7" cx="407.7" cy="506.51" r="1.21"/>
        <circle class="cls-7" cx="389.39" cy="580.05" r="1.21"/>
        <circle class="cls-7" cx="299.55" cy="479.21" r="1.21"/>
        <circle class="cls-7" cx="420.49" cy="517.71" r="1.21"/>
        <circle class="cls-7" cx="387.04" cy="553.23" r="1.21"/>
        <circle class="cls-7" cx="403.54" cy="483.89" r="1.21"/>
        <circle class="cls-7" cx="374.67" cy="473.43" r="1.21"/>
        <circle class="cls-7" cx="329.41" cy="543.24" r="1.21"/>
        <circle class="cls-7" cx="386.65" cy="434.48" r="1.21"/>
        <circle class="cls-7" cx="482.85" cy="444.69" r="1.21"/>
        <circle class="cls-7" cx="481.79" cy="428.28" r="1.21"/>
        <circle class="cls-7" cx="504.67" cy="410.35" r="1.21"/>
        <circle class="cls-7" cx="510.12" cy="407.17" r="1.21"/>
        <circle class="cls-7" cx="451.78" cy="461.38" r="1.21"/>
        <circle class="cls-7" cx="423.04" cy="489.54" r="1.21"/>
        <circle class="cls-7" cx="469.26" cy="402.94" r="1.21"/>
        <circle class="cls-7" cx="481.23" cy="399.7" r="1.21"/>
        <circle class="cls-7" cx="410.82" cy="470.85" r="1.21"/>
        <circle class="cls-7" cx="491.01" cy="369.24" r="1.21"/>
        <circle class="cls-7" cx="500.26" cy="345.5" r="1.21"/>
        <circle class="cls-7" cx="462.22" cy="335.39" r="1.21"/>
        <circle class="cls-7" cx="442.69" cy="433.65" r="1.21"/>
        <circle class="cls-7" cx="394.3" cy="495.2" r="1.21"/>
        <circle class="cls-7" cx="363.41" cy="495.8" r="1.21"/>
        <circle class="cls-7" cx="414.04" cy="402.24" r="1.21"/>
        <circle class="cls-7" cx="316.84" cy="500.93" r="1.21"/>
        <circle class="cls-7" cx="360.98" cy="464.05" r="1.21"/>
        <circle class="cls-7" cx="447.62" cy="472.94" r="1.21"/>
        <circle class="cls-7" cx="439.1" cy="426.65" r="1.21"/>
        <circle class="cls-7" cx="486.94" cy="308.8" r="1.21"/>
        <circle class="cls-7" cx="474.36" cy="296.62" r="1.21"/>
        <circle class="cls-7" cx="453.35" cy="306.01" r="1.21"/>
        <circle class="cls-7" cx="467.34" cy="310.1" r="1.21"/>
        <circle class="cls-7" cx="494.17" cy="289.69" r="1.21"/>
        <circle class="cls-7" cx="384.02" cy="302.52" r="1.21"/>
        <circle class="cls-7" cx="372.45" cy="310.38" r="1.21"/>
        <circle class="cls-7" cx="338.68" cy="335.13" r="1.21"/>
        <circle class="cls-7" cx="301.91" cy="343.95" r="1.21"/>
        <circle class="cls-7" cx="530.41" cy="319.31" r="1.21"/>
        <circle class="cls-7" cx="532.05" cy="337.08" r="1.21"/>
        <circle class="cls-7" cx="569.91" cy="299.99" r="1.21"/>
        <circle class="cls-7" cx="557" cy="373.1" r="1.21"/>
        <circle class="cls-7" cx="540.77" cy="389.89" r="1.21"/>
        <circle class="cls-7" cx="521.34" cy="407.89" r="1.21"/>
        <circle class="cls-7" cx="534.71" cy="435.76" r="1.21"/>
        <circle class="cls-7" cx="497.91" cy="459.96" r="1.21"/>
        <circle class="cls-7" cx="475.55" cy="468.29" r="1.21"/>
        <circle class="cls-7" cx="475.99" cy="482.29" r="1.21"/>
        <circle class="cls-7" cx="452" cy="493.46" r="1.21"/>
        <circle class="cls-7" cx="439.59" cy="501.79" r="1.21"/>
        <circle class="cls-7" cx="574.45" cy="256.24" r="1.21"/>
        <circle class="cls-7" cx="573.28" cy="233.43" r="1.21"/>
        <circle class="cls-7" cx="566.75" cy="198.69" r="1.21"/>
        <circle class="cls-7" cx="550.93" cy="181.39" r="1.21"/>
        <circle class="cls-7" cx="552.35" cy="216.44" r="1.21"/>
        <circle class="cls-7" cx="549.65" cy="208.01" r="1.21"/>
        <circle class="cls-7" cx="526.44" cy="155.13" r="1.21"/>
        <circle class="cls-7" cx="502.35" cy="127.65" r="1.21"/>
        <circle class="cls-7" cx="522.78" cy="126.54" r="1.21"/>
        <circle class="cls-7" cx="507.59" cy="109.38" r="1.21"/>
        <circle class="cls-7" cx="472.73" cy="74.86" r="1.21"/>
        <circle class="cls-7" cx="432.49" cy="64.03" r="1.21"/>
        <circle class="cls-7" cx="471.77" cy="97.49" r="1.21"/>
        <circle class="cls-7" cx="354.11" cy="41.63" r="1.21"/>
        <circle class="cls-7" cx="335.56" cy="47.22" r="1.21"/>
        <circle class="cls-7" cx="370.28" cy="46.5" r="1.21"/>
        <circle class="cls-7" cx="313.99" cy="36.78" r="1.21"/>
        <circle class="cls-7" cx="209.77" cy="66.25" r="1.21"/>
        <circle class="cls-7" cx="235.73" cy="53.01" r="1.21"/>
        <circle class="cls-7" cx="262.94" cy="58.27" r="1.21"/>
        <circle class="cls-7" cx="147.4" cy="135" r="1.21"/>
        <circle class="cls-7" cx="177.34" cy="99.51" r="1.21"/>
        <circle class="cls-7" cx="152.03" cy="125.32" r="1.21"/>
        <circle class="cls-7" cx="127.72" cy="150.53" r="1.21"/>
        <circle class="cls-7" cx="129.05" cy="125.82" r="1.21"/>
        <circle class="cls-7" cx="96.71" cy="200.03" r="1.21"/>
        <circle class="cls-7" cx="96.04" cy="237.37" r="1.21"/>
        <circle class="cls-7" cx="76.76" cy="308.68" r="1.21"/>
        <circle class="cls-7" cx="86.27" cy="293.95" r="1.21"/>
      </g>
      <g>
        <circle class="cls-7" cx="404.14" cy="564.2" r="1.21"/>
        <circle class="cls-7" cx="418.1" cy="576.29" r="1.21"/>
        <circle class="cls-7" cx="423.42" cy="585.95" r="1.21"/>
        <circle class="cls-7" cx="428.32" cy="595.69" r="1.21"/>
        <circle class="cls-7" cx="436.9" cy="602.52" r="1.21"/>
        <circle class="cls-7" cx="437.89" cy="549.38" r="1.21"/>
        <circle class="cls-7" cx="452.65" cy="599.96" r="1.21"/>
      </g>
    </g>
    <g>
      <path class="cls-6" d="M328.18,24.64c-142.77,0-258.5,115.73-258.5,258.5s115.73,258.5,258.5,258.5,258.5-115.73,258.5-258.5S470.94,24.64,328.18,24.64ZM539.5,293.9h0s-.05,0-.07,0c-5.42,0-9.99-2.9-11.54-8.1l-3.2-10.77c-1.67-3.28-5.14-5.24-8.81-4.98l-187.7,13.09-187.7-13.09c-3.67-.26-7.14,1.7-8.81,4.98l-3.2,10.77c-1.55,5.2-6.12,8.09-11.54,8.1-.02,0-.05,0-.07,0h0c-5.6,0-10.09-4.66-9.85-10.26,5.29-118.69,101.72-222.98,221.17-222.98s215.88,104.29,221.17,222.98c.25,5.59-4.25,10.26-9.85,10.26Z"/>
      <path class="cls-6" d="M430.06,476.17c-1.49-3.88-5.21-6.44-9.37-6.44h-192.27c-4.15,0-7.88,2.56-9.37,6.44l-63.79,166.51c-2.52,6.57,2.33,13.62,9.37,13.62h319.85c7.03,0,11.88-7.05,9.37-13.62l-63.79-166.51Z"/>
      <g>
        <use width="2.43" height="2.43" transform="translate(146.25 280.27)" xlink:href="#New_Symbol_2"/>
        <use width="2.43" height="2.43" transform="translate(152.69 281.03)" xlink:href="#New_Symbol_2"/>
        <use width="2.43" height="2.43" transform="translate(194.18 299.57)" xlink:href="#New_Symbol_2"/>
        <use width="2.43" height="2.43" transform="translate(175.96 327.27)" xlink:href="#New_Symbol_2"/>
        <use width="2.43" height="2.43" transform="translate(173.1 312.45)" xlink:href="#New_Symbol_2"/>
        <use width="2.43" height="2.43" transform="translate(226.48 329.93)" xlink:href="#New_Symbol_2"/>
        <use width="2.43" height="2.43" transform="translate(196.46 352.19)" xlink:href="#New_Symbol_2"/>
        <use width="2.43" height="2.43" transform="translate(187.81 312.73)" xlink:href="#New_Symbol_2"/>
        <use width="2.43" height="2.43" transform="translate(136.4 349.5)" xlink:href="#New_Symbol_2"/>
        <use width="2.43" height="2.43" transform="translate(124.16 322.64)" xlink:href="#New_Symbol_2"/>
        <use width="2.43" height="2.43" transform="translate(112.16 321.14)" xlink:href="#New_Symbol_2"/>
        <use width="2.43" height="2.43" transform="translate(105.54 326.03)" xlink:href="#New_Symbol_2"/>
        <use width="2.43" height="2.43" transform="translate(100.34 332.08)" xlink:href="#New_Symbol_2"/>
        <use width="2.43" height="2.43" transform="translate(130.12 370.42)" xlink:href="#New_Symbol_2"/>
        <use width="2.43" height="2.43" transform="translate(183.03 375.23)" xlink:href="#New_Symbol_2"/>
        <use width="2.43" height="2.43" transform="translate(169.06 396.6)" xlink:href="#New_Symbol_2"/>
        <use width="2.43" height="2.43" transform="translate(203.39 370.96)" xlink:href="#New_Symbol_2"/>
        <use width="2.43" height="2.43" transform="translate(166.52 410.47)" xlink:href="#New_Symbol_2"/>
        <use width="2.43" height="2.43" transform="translate(187.42 358.97)" xlink:href="#New_Symbol_2"/>
        <use width="2.43" height="2.43" transform="translate(213.6 449.66)" xlink:href="#New_Symbol_2"/>
        <use width="2.43" height="2.43" transform="translate(255.03 402.83)" xlink:href="#New_Symbol_2"/>
        <use width="2.43" height="2.43" transform="translate(262.66 466.6)" xlink:href="#New_Symbol_2"/>
        <use width="2.43" height="2.43" transform="translate(214.77 418.12)" xlink:href="#New_Symbol_2"/>
        <use width="2.43" height="2.43" transform="translate(225.32 399.88)" xlink:href="#New_Symbol_2"/>
        <use width="2.43" height="2.43" transform="translate(200.39 444.52)" xlink:href="#New_Symbol_2"/>
        <use width="2.43" height="2.43" transform="translate(200.89 451.98)" xlink:href="#New_Symbol_2"/>
        <use width="2.43" height="2.43" transform="translate(166.03 442.07)" xlink:href="#New_Symbol_2"/>
        <use width="2.43" height="2.43" transform="translate(132.58 396.84)" xlink:href="#New_Symbol_2"/>
        <use width="2.43" height="2.43" transform="translate(139.95 422.24)" xlink:href="#New_Symbol_2"/>
        <use width="2.43" height="2.43" transform="translate(107.21 389.11)" xlink:href="#New_Symbol_2"/>
        <use width="2.43" height="2.43" transform="translate(107.11 361.27)" xlink:href="#New_Symbol_2"/>
        <use width="2.43" height="2.43" transform="translate(141.98 439.01)" xlink:href="#New_Symbol_2"/>
        <use width="2.43" height="2.43" transform="translate(156.51 446.14)" xlink:href="#New_Symbol_2"/>
        <use width="2.43" height="2.43" transform="translate(223.87 454.97)" xlink:href="#New_Symbol_2"/>
        <use width="2.43" height="2.43" transform="translate(299.9 507.7)" xlink:href="#New_Symbol_2"/>
        <use width="2.43" height="2.43" transform="translate(256.62 535.65)" xlink:href="#New_Symbol_2"/>
        <use width="2.43" height="2.43" transform="translate(281.5 474.32)" xlink:href="#New_Symbol_2"/>
        <use width="2.43" height="2.43" transform="translate(277.32 539.83)" xlink:href="#New_Symbol_2"/>
        <use width="2.43" height="2.43" transform="translate(238.98 512.99)" xlink:href="#New_Symbol_2"/>
        <use width="2.43" height="2.43" transform="translate(236.79 485.83)" xlink:href="#New_Symbol_2"/>
        <use width="2.43" height="2.43" transform="translate(211.9 512.17)" xlink:href="#New_Symbol_2"/>
        <use width="2.43" height="2.43" transform="translate(231.08 443.62)" xlink:href="#New_Symbol_2"/>
        <use width="2.43" height="2.43" transform="translate(198.73 479.58)" xlink:href="#New_Symbol_2"/>
        <use width="2.43" height="2.43" transform="translate(181.66 450.46)" xlink:href="#New_Symbol_2"/>
        <use width="2.43" height="2.43" transform="translate(190.56 456.93)" xlink:href="#New_Symbol_2"/>
        <use width="2.43" height="2.43" transform="translate(177.97 467.84)" xlink:href="#New_Symbol_2"/>
        <use width="2.43" height="2.43" transform="translate(220.25 328.71)" xlink:href="#New_Symbol_2"/>
        <use width="2.43" height="2.43" transform="translate(235.33 322.65)" xlink:href="#New_Symbol_2"/>
        <use width="2.43" height="2.43" transform="translate(249.79 298.76)" xlink:href="#New_Symbol_2"/>
        <use width="2.43" height="2.43" transform="translate(260.53 342.07)" xlink:href="#New_Symbol_2"/>
        <use width="2.43" height="2.43" transform="translate(248.08 308.06)" xlink:href="#New_Symbol_2"/>
        <use width="2.43" height="2.43" transform="translate(270.09 297.08)" xlink:href="#New_Symbol_2"/>
        <use width="2.43" height="2.43" transform="translate(282.96 318.43)" xlink:href="#New_Symbol_2"/>
        <use width="2.43" height="2.43" transform="translate(278.68 296.35)" xlink:href="#New_Symbol_2"/>
        <use width="2.43" height="2.43" transform="translate(223.53 291.19)" xlink:href="#New_Symbol_2"/>
        <use width="2.43" height="2.43" transform="translate(183.59 340.7)" xlink:href="#New_Symbol_2"/>
        <use width="2.43" height="2.43" transform="translate(287.53 365.03)" xlink:href="#New_Symbol_2"/>
        <use width="2.43" height="2.43" transform="translate(249.39 376.51)" xlink:href="#New_Symbol_2"/>
        <use width="2.43" height="2.43" transform="translate(339.72 375.63)" xlink:href="#New_Symbol_2"/>
        <use width="2.43" height="2.43" transform="translate(308.54 403.27)" xlink:href="#New_Symbol_2"/>
        <use width="2.43" height="2.43" transform="translate(433.2 366.33)" xlink:href="#New_Symbol_2"/>
        <use width="2.43" height="2.43" transform="translate(419.04 393.55)" xlink:href="#New_Symbol_2"/>
        <use width="2.43" height="2.43" transform="translate(392.15 332.14)" xlink:href="#New_Symbol_2"/>
        <use width="2.43" height="2.43" transform="translate(420.75 386.25)" xlink:href="#New_Symbol_2"/>
        <use width="2.43" height="2.43" transform="translate(382.93 341.83)" xlink:href="#New_Symbol_2"/>
        <use width="2.43" height="2.43" transform="translate(427.14 317.26)" xlink:href="#New_Symbol_2"/>
        <use width="2.43" height="2.43" transform="translate(368.86 361.93)" xlink:href="#New_Symbol_2"/>
        <use width="2.43" height="2.43" transform="translate(401.93 293.25)" xlink:href="#New_Symbol_2"/>
        <use width="2.43" height="2.43" transform="translate(366.63 379.31)" xlink:href="#New_Symbol_2"/>
        <use width="2.43" height="2.43" transform="translate(296.46 376.52)" xlink:href="#New_Symbol_2"/>
        <use width="2.43" height="2.43" transform="translate(372.94 426.53)" xlink:href="#New_Symbol_2"/>
        <use width="2.43" height="2.43" transform="translate(439.3 385.95)" xlink:href="#New_Symbol_2"/>
        <use width="2.43" height="2.43" transform="translate(382.29 455.84)" xlink:href="#New_Symbol_2"/>
        <use width="2.43" height="2.43" transform="translate(353.3 366.42)" xlink:href="#New_Symbol_2"/>
        <use width="2.43" height="2.43" transform="translate(339.53 415.6)" xlink:href="#New_Symbol_2"/>
        <use width="2.43" height="2.43" transform="translate(302.9 441.15)" xlink:href="#New_Symbol_2"/>
        <use width="2.43" height="2.43" transform="translate(295.3 430.15)" xlink:href="#New_Symbol_2"/>
        <use width="2.43" height="2.43" transform="translate(233.22 374.85)" xlink:href="#New_Symbol_2"/>
        <use width="2.43" height="2.43" transform="translate(320.26 421.28)" xlink:href="#New_Symbol_2"/>
        <use width="2.43" height="2.43" transform="translate(301.94 466.47)" xlink:href="#New_Symbol_2"/>
        <use width="2.43" height="2.43" transform="translate(313.33 451.23)" xlink:href="#New_Symbol_2"/>
        <use width="2.43" height="2.43" transform="translate(353.1 552.9)" xlink:href="#New_Symbol_2"/>
        <use width="2.43" height="2.43" transform="translate(326.42 574.85)" xlink:href="#New_Symbol_2"/>
        <use width="2.43" height="2.43" transform="translate(249.01 583.49)" xlink:href="#New_Symbol_2"/>
        <use width="2.43" height="2.43" transform="translate(276.85 530.31)" xlink:href="#New_Symbol_2"/>
        <use width="2.43" height="2.43" transform="translate(235.54 603.69)" xlink:href="#New_Symbol_2"/>
        <use width="2.43" height="2.43" transform="translate(247.87 533.9)" xlink:href="#New_Symbol_2"/>
        <use width="2.43" height="2.43" transform="translate(264.58 544.42)" xlink:href="#New_Symbol_2"/>
        <use width="2.43" height="2.43" transform="translate(217.4 556.53)" xlink:href="#New_Symbol_2"/>
        <use width="2.43" height="2.43" transform="translate(224.28 541.52)" xlink:href="#New_Symbol_2"/>
        <use width="2.43" height="2.43" transform="translate(180.19 606.52)" xlink:href="#New_Symbol_2"/>
        <use width="2.43" height="2.43" transform="translate(172.45 630.07)" xlink:href="#New_Symbol_2"/>
        <use width="2.43" height="2.43" transform="translate(210.74 568.1)" xlink:href="#New_Symbol_2"/>
        <use width="2.43" height="2.43" transform="translate(203.91 590.18)" xlink:href="#New_Symbol_2"/>
        <use width="2.43" height="2.43" transform="translate(182.58 573.21)" xlink:href="#New_Symbol_2"/>
        <use width="2.43" height="2.43" transform="translate(195.82 574.69)" xlink:href="#New_Symbol_2"/>
        <use width="2.43" height="2.43" transform="translate(194.55 604.36)" xlink:href="#New_Symbol_2"/>
        <use width="2.43" height="2.43" transform="translate(215.9 630.73)" xlink:href="#New_Symbol_2"/>
        <use width="2.43" height="2.43" transform="translate(265.18 637.45)" xlink:href="#New_Symbol_2"/>
        <use width="2.43" height="2.43" transform="translate(240.43 645.7)" xlink:href="#New_Symbol_2"/>
        <use width="2.43" height="2.43" transform="translate(229.74 621.38)" xlink:href="#New_Symbol_2"/>
        <use width="2.43" height="2.43" transform="translate(212.74 650.97)" xlink:href="#New_Symbol_2"/>
        <use width="2.43" height="2.43" transform="translate(201.14 651.03)" xlink:href="#New_Symbol_2"/>
        <use width="2.43" height="2.43" transform="translate(278.1 618.17)" xlink:href="#New_Symbol_2"/>
        <use width="2.43" height="2.43" transform="translate(319.87 587.04)" xlink:href="#New_Symbol_2"/>
        <use width="2.43" height="2.43" transform="translate(361.53 631.63)" xlink:href="#New_Symbol_2"/>
        <use width="2.43" height="2.43" transform="translate(321.89 621.87)" xlink:href="#New_Symbol_2"/>
        <use width="2.43" height="2.43" transform="translate(427.23 613.96)" xlink:href="#New_Symbol_2"/>
        <use width="2.43" height="2.43" transform="translate(347.43 631.56)" xlink:href="#New_Symbol_2"/>
        <use width="2.43" height="2.43" transform="translate(364.89 603.08)" xlink:href="#New_Symbol_2"/>
        <use width="2.43" height="2.43" transform="translate(451.16 624.88)" xlink:href="#New_Symbol_2"/>
        <use width="2.43" height="2.43" transform="translate(471.76 644.88)" xlink:href="#New_Symbol_2"/>
        <use width="2.43" height="2.43" transform="translate(470.23 636.83)" xlink:href="#New_Symbol_2"/>
        <use width="2.43" height="2.43" transform="translate(456.46 635.47)" xlink:href="#New_Symbol_2"/>
        <use width="2.43" height="2.43" transform="translate(418.34 646.65)" xlink:href="#New_Symbol_2"/>
        <use width="2.43" height="2.43" transform="translate(370.47 637.7)" xlink:href="#New_Symbol_2"/>
        <use width="2.43" height="2.43" transform="translate(333.92 639.42)" xlink:href="#New_Symbol_2"/>
        <use width="2.43" height="2.43" transform="translate(262.59 600.35)" xlink:href="#New_Symbol_2"/>
        <use width="2.43" height="2.43" transform="translate(306.79 586.79)" xlink:href="#New_Symbol_2"/>
        <use width="2.43" height="2.43" transform="translate(303.23 558.93)" xlink:href="#New_Symbol_2"/>
        <use width="2.43" height="2.43" transform="translate(344.54 566.79)" xlink:href="#New_Symbol_2"/>
        <use width="2.43" height="2.43" transform="translate(305.22 565.09)" xlink:href="#New_Symbol_2"/>
        <use width="2.43" height="2.43" transform="translate(406.49 505.3)" xlink:href="#New_Symbol_2"/>
        <use width="2.43" height="2.43" transform="translate(388.18 578.83)" xlink:href="#New_Symbol_2"/>
        <use width="2.43" height="2.43" transform="translate(298.33 478)" xlink:href="#New_Symbol_2"/>
        <use width="2.43" height="2.43" transform="translate(419.28 516.49)" xlink:href="#New_Symbol_2"/>
        <use width="2.43" height="2.43" transform="translate(385.82 552.02)" xlink:href="#New_Symbol_2"/>
        <use width="2.43" height="2.43" transform="translate(402.33 482.67)" xlink:href="#New_Symbol_2"/>
        <use width="2.43" height="2.43" transform="translate(373.46 472.21)" xlink:href="#New_Symbol_2"/>
        <use width="2.43" height="2.43" transform="translate(328.2 542.02)" xlink:href="#New_Symbol_2"/>
        <use width="2.43" height="2.43" transform="translate(385.43 433.27)" xlink:href="#New_Symbol_2"/>
        <use width="2.43" height="2.43" transform="translate(481.64 443.48)" xlink:href="#New_Symbol_2"/>
        <use width="2.43" height="2.43" transform="translate(480.57 427.07)" xlink:href="#New_Symbol_2"/>
        <use width="2.43" height="2.43" transform="translate(503.46 409.13)" xlink:href="#New_Symbol_2"/>
        <use width="2.43" height="2.43" transform="translate(508.91 405.95)" xlink:href="#New_Symbol_2"/>
        <use width="2.43" height="2.43" transform="translate(450.56 460.17)" xlink:href="#New_Symbol_2"/>
        <use width="2.43" height="2.43" transform="translate(421.83 488.32)" xlink:href="#New_Symbol_2"/>
        <use width="2.43" height="2.43" transform="translate(468.05 401.72)" xlink:href="#New_Symbol_2"/>
        <use width="2.43" height="2.43" transform="translate(480.02 398.48)" xlink:href="#New_Symbol_2"/>
        <use width="2.43" height="2.43" transform="translate(409.6 469.64)" xlink:href="#New_Symbol_2"/>
        <use width="2.43" height="2.43" transform="translate(489.8 368.03)" xlink:href="#New_Symbol_2"/>
        <use width="2.43" height="2.43" transform="translate(499.05 344.29)" xlink:href="#New_Symbol_2"/>
        <use width="2.43" height="2.43" transform="translate(461.01 334.18)" xlink:href="#New_Symbol_2"/>
        <use width="2.43" height="2.43" transform="translate(441.48 432.44)" xlink:href="#New_Symbol_2"/>
        <use width="2.43" height="2.43" transform="translate(393.09 493.98)" xlink:href="#New_Symbol_2"/>
        <use width="2.43" height="2.43" transform="translate(362.2 494.58)" xlink:href="#New_Symbol_2"/>
        <use width="2.43" height="2.43" transform="translate(412.82 401.02)" xlink:href="#New_Symbol_2"/>
        <use width="2.43" height="2.43" transform="translate(315.62 499.72)" xlink:href="#New_Symbol_2"/>
        <use width="2.43" height="2.43" transform="translate(359.77 462.84)" xlink:href="#New_Symbol_2"/>
        <use width="2.43" height="2.43" transform="translate(446.41 471.73)" xlink:href="#New_Symbol_2"/>
        <use width="2.43" height="2.43" transform="translate(437.89 425.44)" xlink:href="#New_Symbol_2"/>
        <use width="2.43" height="2.43" transform="translate(485.73 307.58)" xlink:href="#New_Symbol_2"/>
        <use width="2.43" height="2.43" transform="translate(473.15 295.4)" xlink:href="#New_Symbol_2"/>
        <use width="2.43" height="2.43" transform="translate(452.14 304.79)" xlink:href="#New_Symbol_2"/>
        <use width="2.43" height="2.43" transform="translate(466.12 308.89)" xlink:href="#New_Symbol_2"/>
        <use width="2.43" height="2.43" transform="translate(492.95 288.48)" xlink:href="#New_Symbol_2"/>
        <use width="2.43" height="2.43" transform="translate(382.81 301.31)" xlink:href="#New_Symbol_2"/>
        <use width="2.43" height="2.43" transform="translate(371.24 309.17)" xlink:href="#New_Symbol_2"/>
        <use width="2.43" height="2.43" transform="translate(337.46 333.92)" xlink:href="#New_Symbol_2"/>
        <use width="2.43" height="2.43" transform="translate(300.7 342.74)" xlink:href="#New_Symbol_2"/>
        <use width="2.43" height="2.43" transform="translate(529.2 318.1)" xlink:href="#New_Symbol_2"/>
        <use width="2.43" height="2.43" transform="translate(530.83 335.87)" xlink:href="#New_Symbol_2"/>
        <use width="2.43" height="2.43" transform="translate(568.7 298.77)" xlink:href="#New_Symbol_2"/>
        <use width="2.43" height="2.43" transform="translate(555.79 371.88)" xlink:href="#New_Symbol_2"/>
        <use width="2.43" height="2.43" transform="translate(539.55 388.68)" xlink:href="#New_Symbol_2"/>
        <use width="2.43" height="2.43" transform="translate(520.13 406.67)" xlink:href="#New_Symbol_2"/>
        <use width="2.43" height="2.43" transform="translate(533.5 434.55)" xlink:href="#New_Symbol_2"/>
        <use width="2.43" height="2.43" transform="translate(496.69 458.74)" xlink:href="#New_Symbol_2"/>
        <use width="2.43" height="2.43" transform="translate(474.33 467.08)" xlink:href="#New_Symbol_2"/>
        <use width="2.43" height="2.43" transform="translate(474.77 481.07)" xlink:href="#New_Symbol_2"/>
        <use width="2.43" height="2.43" transform="translate(450.78 492.25)" xlink:href="#New_Symbol_2"/>
        <use width="2.43" height="2.43" transform="translate(438.38 500.58)" xlink:href="#New_Symbol_2"/>
        <use width="2.43" height="2.43" transform="translate(573.24 255.03)" xlink:href="#New_Symbol_2"/>
        <use width="2.43" height="2.43" transform="translate(572.07 232.22)" xlink:href="#New_Symbol_2"/>
        <use width="2.43" height="2.43" transform="translate(565.53 197.47)" xlink:href="#New_Symbol_2"/>
        <use width="2.43" height="2.43" transform="translate(549.71 180.17)" xlink:href="#New_Symbol_2"/>
        <use width="2.43" height="2.43" transform="translate(551.14 215.23)" xlink:href="#New_Symbol_2"/>
        <use width="2.43" height="2.43" transform="translate(548.44 206.8)" xlink:href="#New_Symbol_2"/>
        <use width="2.43" height="2.43" transform="translate(525.22 153.92)" xlink:href="#New_Symbol_2"/>
        <use width="2.43" height="2.43" transform="translate(501.13 126.44)" xlink:href="#New_Symbol_2"/>
        <use width="2.43" height="2.43" transform="translate(521.56 125.33)" xlink:href="#New_Symbol_2"/>
        <use width="2.43" height="2.43" transform="translate(506.37 108.16)" xlink:href="#New_Symbol_2"/>
        <use width="2.43" height="2.43" transform="translate(471.52 73.65)" xlink:href="#New_Symbol_2"/>
        <use width="2.43" height="2.43" transform="translate(431.27 62.81)" xlink:href="#New_Symbol_2"/>
        <use width="2.43" height="2.43" transform="translate(470.56 96.28)" xlink:href="#New_Symbol_2"/>
        <use width="2.43" height="2.43" transform="translate(352.89 40.41)" xlink:href="#New_Symbol_2"/>
        <use width="2.43" height="2.43" transform="translate(334.35 46.01)" xlink:href="#New_Symbol_2"/>
        <use width="2.43" height="2.43" transform="translate(369.07 45.29)" xlink:href="#New_Symbol_2"/>
        <use width="2.43" height="2.43" transform="translate(312.78 35.57)" xlink:href="#New_Symbol_2"/>
        <use width="2.43" height="2.43" transform="translate(208.55 65.03)" xlink:href="#New_Symbol_2"/>
        <use width="2.43" height="2.43" transform="translate(234.51 51.79)" xlink:href="#New_Symbol_2"/>
        <use width="2.43" height="2.43" transform="translate(261.73 57.06)" xlink:href="#New_Symbol_2"/>
        <use width="2.43" height="2.43" transform="translate(146.19 133.79)" xlink:href="#New_Symbol_2"/>
        <use width="2.43" height="2.43" transform="translate(176.12 98.3)" xlink:href="#New_Symbol_2"/>
        <use width="2.43" height="2.43" transform="translate(150.82 124.1)" xlink:href="#New_Symbol_2"/>
        <use width="2.43" height="2.43" transform="translate(126.51 149.32)" xlink:href="#New_Symbol_2"/>
        <use width="2.43" height="2.43" transform="translate(127.84 124.61)" xlink:href="#New_Symbol_2"/>
        <use width="2.43" height="2.43" transform="translate(95.49 198.81)" xlink:href="#New_Symbol_2"/>
        <use width="2.43" height="2.43" transform="translate(94.83 236.15)" xlink:href="#New_Symbol_2"/>
        <use width="2.43" height="2.43" transform="translate(75.55 307.47)" xlink:href="#New_Symbol_2"/>
        <use width="2.43" height="2.43" transform="translate(85.06 292.73)" xlink:href="#New_Symbol_2"/>
      </g>
      <g>
        <use width="2.43" height="2.43" transform="translate(402.92 562.99)" xlink:href="#New_Symbol_2"/>
        <use width="2.43" height="2.43" transform="translate(416.89 575.08)" xlink:href="#New_Symbol_2"/>
        <use width="2.43" height="2.43" transform="translate(422.2 584.74)" xlink:href="#New_Symbol_2"/>
        <use width="2.43" height="2.43" transform="translate(427.1 594.47)" xlink:href="#New_Symbol_2"/>
        <use width="2.43" height="2.43" transform="translate(435.69 601.3)" xlink:href="#New_Symbol_2"/>
        <use width="2.43" height="2.43" transform="translate(436.68 548.17)" xlink:href="#New_Symbol_2"/>
        <use width="2.43" height="2.43" transform="translate(451.44 598.75)" xlink:href="#New_Symbol_2"/>
      </g>
    </g>
  </g>
  <g id="dial">
    <g>
      <path class="cls-5" d="M334.14,242.8l-1.83-144.1h-.02c-.2-4.5-1.86-5.74-3.88-5.74s-3.67,1.24-3.88,5.74h-.02l-2.28,144.1c-19.7,2.88-34.83,19.84-34.83,40.34,0,22.52,18.26,40.78,40.78,40.78s40.78-18.26,40.78-40.78c0-20.5-15.13-37.46-34.82-40.34Z"/>
      <circle class="cls-4" cx="328.18" cy="283.14" r="30"/>
    </g>
  </g>
  <g id="handle">
    <path class="cls-2" d="M117.62,272.85v-.05s-1.12-.13-1.12-.13h0s-105.78-11.91-105.78-11.91c-5.13-.58-10.07,2.45-10.66,6.81-.59,4.35,3.38,8.39,8.51,8.96l106.91,12.04v-.05c5.42.19,10.32-2.66,10.87-6.74.55-4.07-3.43-7.92-8.73-8.94Z"/>
  </g>
</svg>